<?xml version="1.0" encoding="UTF-8"?>
<svg width="173" height="62" viewBox="0 0 173 62" fill="none" xmlns="http://www.w3.org/2000/svg">
<path fill="#2860b0" fill-rule="nonzero" transform="matrix(0.025391,0,0,-0.025391,2.000,50)" d="M803 0H408V1139H51V1462H1159V1139H803Z"/>
<path fill="#2860b0" fill-rule="nonzero" transform="matrix(0.025391,0,0,-0.025391,31.223,50)" d="M874 0 799 150H791Q712 52 630.0 16.0Q548 -20 418 -20Q258 -20 166.0 76.0Q74 172 74 346Q74 527 200.0 615.5Q326 704 565 715L754 721V737Q754 877 616 877Q492 877 301 793L188 1051Q386 1153 688 1153Q906 1153 1025.5 1045.0Q1145 937 1145 743V0ZM584 256Q655 256 705.5 301.0Q756 346 756 418V506L666 502Q473 495 473 360Q473 256 584 256Z"/>
<path fill="#2860b0" fill-rule="nonzero" transform="matrix(0.025391,0,0,-0.025391,62.121,50)" d="M526 0H135V1556H526Z"/>
<path fill="#2860b0" fill-rule="nonzero" transform="matrix(0.025391,0,0,-0.025391,77.430,50)" d="M514 637Q585 750 635 813L889 1133H1325L932 651L1350 0H903L655 406L528 309V0H135V1556H528V944Q528 787 506 637Z"/>
<path fill="#0a1e3c" fill-rule="nonzero" transform="matrix(0.025391,0,0,-0.025391,110.207,50)" d="M-2 1133H410L602 483Q616 432 621 360H629Q637 429 653 481L850 1133H1249L801 -72Q715 -302 589.5 -397.0Q464 -492 262 -492Q184 -492 102 -475V-168Q155 -180 223 -180Q275 -180 314.0 -160.0Q353 -140 382.0 -103.5Q411 -67 444 16Z"/>
<circle cx="155.4" cy="12" r="11" fill="#2860b0" opacity="0.18"/>
<circle cx="155.4" cy="12" r="6.5" fill="#2860b0"/>
</svg>